<?xml version="1.0" encoding="utf-8"?>


<!-- Generator: Adobe Illustrator 18.1.1, SVG Export Plug-In . SVG Version: 6.00 Build 0)  -->
<svg version="1.1" id="Layer_1" xmlns="http://www.w3.org/2000/svg" xmlns:xlink="http://www.w3.org/1999/xlink" x="0px" y="0px"
	 viewBox="0 0 1224 792" enable-background="new 0 0 1224 792"
	 xml:space="preserve">
  <style>
   rect:hover
   {
       opacity: 0.5;
   }
</style>
<g>
	<linearGradient id="SVGID_1_" gradientUnits="userSpaceOnUse"
			x1="554.5276" y1="526" x2="554.5276"
			y2="561.0036" onmouseover="evt.target.setAttribute('opacity', '1');">
		<stop  offset="0" style="stop-color:#6F93DE"/>
		<stop  offset="0.4693" style="stop-color:#698FDD;stop-opacity:0.5307"/>
		<stop  offset="1" style="stop-color:#5B87DA;stop-opacity:0"/>
	</linearGradient>
	<path fill="url(#SVGID_1_)" d="M559.3,529h-9.6v4.4h1.9c0,0,0.4,12.1,0.4,16.2h-2.2v4h9.6v-4h-2.6l-0.1-13.1l0-2.7l0.7,0.1
		c0-0.9,1.7-0.9,1.7-0.9c0,0,0,0,0,0l0,0h0.3V529z"/>
	<linearGradient id="SVGID_2_" gradientUnits="userSpaceOnUse" x1="621.3722" y1="526" x2="621.3722" y2="561.0036">
		<stop  offset="0" style="stop-color:#6F93DE"/>
		<stop  offset="0.4693" style="stop-color:#698FDD;stop-opacity:0.5307"/>
		<stop  offset="1" style="stop-color:#5B87DA;stop-opacity:0"/>
	</linearGradient>
	<polygon fill="url(#SVGID_2_)" points="634.6,529 625,529 625,533.1 627.4,533.1 627.2,545.5 614.7,529 608.2,529 608.2,533.1 
		610.5,533.1 611.4,549.5 609.4,549.5 609.3,553.4 618.9,553.4 618.9,549.9 616.1,549.9 615.3,537.6 627.5,553.6 632,553.6 
		632,533.1 634.6,533.1 	"/>
	<linearGradient id="SVGID_3_" gradientUnits="userSpaceOnUse" x1="645.3809" y1="526" x2="645.3809" y2="561.0036">
		<stop  offset="0" style="stop-color:#6F93DE"/>
		<stop  offset="0.4693" style="stop-color:#698FDD;stop-opacity:0.5307"/>
		<stop  offset="1" style="stop-color:#5B87DA;stop-opacity:0"/>
	</linearGradient>
	<path fill="url(#SVGID_3_)" d="M654.1,535.3c-1.6-4.8-6.7-7.4-11.5-5.8c-4.8,1.6-7.4,6.7-5.9,11.5c1.6,4.8,6.7,7.4,11.5,5.8
		C653,545.2,655.6,540,654.1,535.3z M647,543.2c-2.8,0.9-5.9-0.6-6.8-3.5c-0.9-2.8,0.6-5.9,3.5-6.8c2.8-0.9,5.9,0.6,6.8,3.5
		C651.4,539.2,649.9,542.3,647,543.2z"/>
	<linearGradient id="SVGID_4_" gradientUnits="userSpaceOnUse" x1="645.3809" y1="526" x2="645.3809" y2="561.0036">
		<stop  offset="0" style="stop-color:#6F93DE"/>
		<stop  offset="0.4693" style="stop-color:#698FDD;stop-opacity:0.5307"/>
		<stop  offset="1" style="stop-color:#5B87DA;stop-opacity:0"/>
	</linearGradient>
	<rect x="640.4" y="549.6" fill="url(#SVGID_4_)" width="9.9" height="4"/>
	<linearGradient id="SVGID_5_" gradientUnits="userSpaceOnUse" x1="665.4443" y1="526" x2="665.4443" y2="561.0036">
		<stop  offset="0" style="stop-color:#6F93DE"/>
		<stop  offset="0.4693" style="stop-color:#698FDD;stop-opacity:0.5307"/>
		<stop  offset="1" style="stop-color:#5B87DA;stop-opacity:0"/>
	</linearGradient>
	<path fill="url(#SVGID_5_)" d="M672,542.2c-3.4-3.3-10.2-3.5-10.2-6.5c0-1.6,1.6-2.8,3.2-2.8c2.5,0,3.5,2.6,3.6,3.1h3.8v-6.5h-3.1
		v1.3c-0.7-0.7-2.3-1.7-5.2-1.7c-4.4,0.1-6.9,3.8-6.9,6.6c0,2.8,0.7,5.4,6,7.1c4.4,1.4,6.3,1.6,6,4.3c-0.2,2.8-3.9,3.1-5.7,2.4
		c-1-0.4-1.8-1.6-1.9-3.1h-4.3v7.1h3.8V552c0,0,0.2,1.8,5,1.8c4.9,0,7-3.5,7.5-5.1C674,547.2,674.1,544.3,672,542.2z"/>
	<linearGradient id="SVGID_6_" gradientUnits="userSpaceOnUse" x1="594.8801" y1="526" x2="594.8801" y2="561.0036">
		<stop  offset="0" style="stop-color:#6F93DE"/>
		<stop  offset="0.4693" style="stop-color:#698FDD;stop-opacity:0.5307"/>
		<stop  offset="1" style="stop-color:#5B87DA;stop-opacity:0"/>
	</linearGradient>
	<path fill="url(#SVGID_6_)" d="M605.5,549.5l-8.1-20.4h-7.9v3.8h0.7l0.3,0.6c0,0,0.8-0.1,0.9,0.6l-6.7,15.4h-2v3.9h4.7h2h2V550
		h-1.9l1.5-3.5h8.4l1.4,3.5h-2v3.4h4.1h4.2v-3.9L605.5,549.5z M592.1,543l3.1-8.3l3.1,8.3H592.1z"/>
	<linearGradient id="SVGID_7_" gradientUnits="userSpaceOnUse" x1="574.1198" y1="526" x2="574.1198" y2="561.0036">
		<stop  offset="0" style="stop-color:#6F93DE"/>
		<stop  offset="0.4693" style="stop-color:#698FDD;stop-opacity:0.5307"/>
		<stop  offset="1" style="stop-color:#5B87DA;stop-opacity:0"/>
	</linearGradient>
	<path fill="url(#SVGID_7_)" d="M576.9,529.3l0,3.7h2.6l-6.3,14l-2.9-12.8c0,0,0.1-0.7,0.4-1.1h1.6v-4H562v4h2.5l5,17.2
		c0,0,0.3,0.6,0,1.1c-0.3,0.5-0.6,0.5-0.6,0.5l0.1,1.8h4.8h1.6h3.2v-3.8c-0.9,0-1.3-0.2-1.4-0.5l6.8-16.2h2.1v-3.8H576.9z"/>
</g>
<linearGradient id="SVGID_8_" gradientUnits="userSpaceOnUse" x1="611.7625" y1="485.5" x2="611.7625" y2="249.6685">
	<stop  offset="0" style="stop-color:#6F93DE;stop-opacity:0.9"/>
	<stop  offset="0.175" style="stop-color:#658DDC;stop-opacity:0.76"/>
	<stop  offset="0.4461" style="stop-color:#5D88DA;stop-opacity:0.5431"/>
	<stop  offset="1" style="stop-color:#5B87DA;stop-opacity:0.1"/>
</linearGradient>
<path fill="url(#SVGID_8_)" d="M721.7,332.1c-19.7-60.7-84.9-94-145.7-74.2c-60.7,19.7-94,84.9-74.2,145.7s84.9,94,145.7,74.2
	C708.2,458.1,741.4,392.9,721.7,332.1z M530.8,304.6c0-8,6.5-14.6,14.6-14.6c8,0,14.6,6.5,14.6,14.6c0,8-6.5,14.6-14.6,14.6
	C537.3,319.2,530.8,312.7,530.8,304.6z M567,452.8c-3.6,0-6.5-2.9-6.5-6.5c0-3.6,2.9-6.5,6.5-6.5s6.5,2.9,6.5,6.5
	C573.5,449.9,570.6,452.8,567,452.8z M633.3,433.7c-36.5,11.9-75.8-8.1-87.6-44.7c-11.9-36.5,8.1-75.8,44.7-87.6s75.8,8.1,87.6,44.7
	S669.8,421.9,633.3,433.7z"/>
<circle id="orange-circle" fill="#FF6700" cx="655.4" cy="359.8" r="34"
	onmouseover="evt.target.setAttribute('opacity', '0.5');" onmouseout="evt.target.setAttribute('opacity','1)');"/>
<g>
	<linearGradient id="SVGID_9_" gradientUnits="userSpaceOnUse" x1="619.9606" y1="488" x2="619.9606" y2="239.7099">
		<stop  offset="0" style="stop-color:#82BC00"/>
		<stop  offset="0.9116" style="stop-color:#82BC00;stop-opacity:0.3619"/>
		<stop  offset="1" style="stop-color:#82BC00;stop-opacity:0.3"/>
	</linearGradient>
	<polygon fill="url(#SVGID_9_)" points="609.6,453 630.3,451.2 621.2,442.3 	"/>
	<linearGradient id="SVGID_10_" gradientUnits="userSpaceOnUse" x1="642.8709" y1="488" x2="642.8709" y2="239.7099">
		<stop  offset="0" style="stop-color:#82BC00"/>
		<stop  offset="0.9116" style="stop-color:#82BC00;stop-opacity:0.3619"/>
		<stop  offset="1" style="stop-color:#82BC00;stop-opacity:0.3"/>
	</linearGradient>
	<polygon fill="url(#SVGID_10_)" points="623.6,441.3 634,450.2 662.1,451.2 638.1,416 	"/>
	<linearGradient id="SVGID_11_" gradientUnits="userSpaceOnUse" x1="658.0065" y1="488" x2="658.0065" y2="239.7099">
		<stop  offset="0" style="stop-color:#82BC00"/>
		<stop  offset="0.9116" style="stop-color:#82BC00;stop-opacity:0.3619"/>
		<stop  offset="1" style="stop-color:#82BC00;stop-opacity:0.3"/>
	</linearGradient>
	<path fill="url(#SVGID_11_)" d="M657.9,457c-0.2,0-0.3,0.2-0.4,0.3c-1.2,1.2-2.5,2.5-3.7,3.7c2.3,2,5.4,2.9,8.4,2.5
		c-1.4-1.8-2.6-3.8-3.6-5.8C658.5,457.3,658.2,457,657.9,457z"/>
	<linearGradient id="SVGID_12_" gradientUnits="userSpaceOnUse" x1="653.6849" y1="488" x2="653.6849" y2="239.7099">
		<stop  offset="0" style="stop-color:#82BC00"/>
		<stop  offset="0.9116" style="stop-color:#82BC00;stop-opacity:0.3619"/>
		<stop  offset="1" style="stop-color:#82BC00;stop-opacity:0.3"/>
	</linearGradient>
	<path fill="url(#SVGID_12_)" d="M652.1,368.3c-1.5,0.7-3.2,0.3-4.7-0.3c-3.8-1.3-7.4-3.1-10.7-5.5c-1.1-0.8-2.2-1.7-2.7-3
		c-0.4-1.3,0.2-3,1.5-3.3c-0.8-0.6-0.4-1.9-0.9-2.7c-0.2-0.3-0.5-0.5-0.8-0.7c-2-1.5-3.1-4.1-2.7-6.6c-1,0-1.9,0.8-2.4,1.8
		c-0.4,0.9-0.6,2-0.6,3c-0.1,1.2-0.2,2.5-0.4,3.7c-0.1,1.2-0.1,2.7,1,3.3c-0.6,0.1-1.3,0.5-1.7,0.9c0.7,4.7,1.3,9.5,2,14.2
		c0.2,1.8,0.5,3.6,1.7,5c0.9,1.1,2.5,2.1,2.4,3.5c-0.8,0-1.5-0.3-2.1-0.9c-0.3,1.8,0.1,4,1.2,5.5c0.3,0.5,5.7,6.6,12,8.6
		c2.5,0.8,3.2,0.3,3.8,0.3c0.3,0-0.6-1.3-0.6-1.9s0.4-0.8,0.4-0.8s1-0.1,1.5,0.2c1.9,1,4.2,0.8,6.3,0.4c6.2-1,12.2-3,17.5-6.3
		c3.4-2.1,6.7-5.1,7.3-9.1c-2.4,0.4-5.1-0.7-6.4-2.8c-1.4-2.1-1.4-4.9-0.1-7c-3.6-1.2-7.1-2.4-10.7-3.6c-2.3-0.8-4.9-1.5-6.9-0.2
		C654.7,365.3,653.9,367.5,652.1,368.3z"/>
	<linearGradient id="SVGID_13_" gradientUnits="userSpaceOnUse" x1="659.3417" y1="488" x2="659.3417" y2="239.7099">
		<stop  offset="0" style="stop-color:#82BC00"/>
		<stop  offset="0.9116" style="stop-color:#82BC00;stop-opacity:0.3619"/>
		<stop  offset="1" style="stop-color:#82BC00;stop-opacity:0.3"/>
	</linearGradient>
	<path fill="url(#SVGID_13_)" d="M657.8,352.7c-0.6-0.1,0-1.1,0.4-1.5c0.3-0.3,0.6-0.6,1-0.5c0.2,0,0.5,0.2,0.7,0.3
		c0.4,0.3,0.8,0.6,1.2,0.8c-0.5,0.5-0.4,1.6-1.1,1.7c-0.2,0-0.4,0-0.5-0.1C659.5,353.4,658.2,352.7,657.8,352.7z"/>
	<linearGradient id="SVGID_14_" gradientUnits="userSpaceOnUse" x1="650.6163" y1="488" x2="650.6163" y2="239.7099">
		<stop  offset="0" style="stop-color:#82BC00"/>
		<stop  offset="0.9116" style="stop-color:#82BC00;stop-opacity:0.3619"/>
		<stop  offset="1" style="stop-color:#82BC00;stop-opacity:0.3"/>
	</linearGradient>
	<path fill="url(#SVGID_14_)" d="M647.6,344.7c0-0.2-0.1-0.5,0-0.7c0.2-0.5,1.2-0.5,1.4-1c0.1-0.4-0.2-0.8-0.1-1.2
		c0.1-0.3,0.5-0.5,0.8-0.4c0.3,0,0.6,0.2,0.9,0.4c1.1,0.8,2.2,1.6,2.7,2.8s0.5,2.8-0.5,3.7c-1.1-0.2-2.2-0.5-3.3-0.9
		c-0.3-0.1-0.6-0.2-0.9-0.4C647.9,346.6,647.7,345.6,647.6,344.7z"/>
	<linearGradient id="SVGID_15_" gradientUnits="userSpaceOnUse" x1="669.3781" y1="488" x2="669.3781" y2="239.7099">
		<stop  offset="0" style="stop-color:#82BC00"/>
		<stop  offset="0.9116" style="stop-color:#82BC00;stop-opacity:0.3619"/>
		<stop  offset="1" style="stop-color:#82BC00;stop-opacity:0.3"/>
	</linearGradient>
	<path fill="url(#SVGID_15_)" d="M675.7,343.9c0.6-0.5,1.1-1.1,1.6-1.8c0.1-0.1,0.1-0.3,0.1-0.4c0-0.1-0.1-0.3-0.2-0.4
		c-3.7-4.6-10.1-6.9-15.9-5.7c0.2,0.5,0.3,1,0.5,1.5c0.1,0.3,0.2,0.6,0.4,0.8c0.3,0.3,0.7,0.3,1,0.4c4.2,0.8,7.7,3.5,11.2,5.7
		c0.2,0.1,0.4,0.2,0.6,0.2C675.3,344.3,675.5,344.1,675.7,343.9z"/>
	<linearGradient id="SVGID_16_" gradientUnits="userSpaceOnUse" x1="667.8256" y1="488" x2="667.8256" y2="239.7099">
		<stop  offset="0" style="stop-color:#82BC00"/>
		<stop  offset="0.9116" style="stop-color:#82BC00;stop-opacity:0.3619"/>
		<stop  offset="1" style="stop-color:#82BC00;stop-opacity:0.3"/>
	</linearGradient>
	<path fill="url(#SVGID_16_)" d="M671.6,321.7c-1.3-0.8-2.6-1.7-4.1-1.8c-2-0.1-3.8,1.4-5.3,2.7c-1,0.9-2.1,1.8-2.4,3.1
		c2.3,0,4.8,0,6.6,1.5c0.9-0.9,2.2-1.2,3.4-1.5c2-0.4,3.9-0.8,5.9-1.3C674.4,323.6,673,322.7,671.6,321.7z"/>
	<linearGradient id="SVGID_17_" gradientUnits="userSpaceOnUse" x1="600.3943" y1="488" x2="600.3943" y2="239.7099">
		<stop  offset="0" style="stop-color:#82BC00"/>
		<stop  offset="0.9116" style="stop-color:#82BC00;stop-opacity:0.3619"/>
		<stop  offset="1" style="stop-color:#82BC00;stop-opacity:0.3"/>
	</linearGradient>
	<path fill="url(#SVGID_17_)" d="M596.2,398.7c-0.8,1.7-2.5,2.9-3.4,4.5c-1.1,1.9-1,4.3,0.1,6.2c0.6,1,1.6,1.9,2.6,2.5
		c1.2,0.8,2.5,1.5,3.9,1.5c1.4,0,7.5-1.4,8.8-2.8c1.4-1.4,0.5-2.9-0.6-2.3s-2.5,0.3-3.5-0.5c-1-0.7-1.8-1.6-2.4-2.7
		c-0.2-0.4-0.3-0.9-0.4-1.3c-0.1-1,0.7-1.8,1.6-2.1c0.9-0.3,1.9-0.2,2.9,0c-1.6-1.3-1.2-4.1-2.9-5.2c-0.8-0.5-1.8-0.5-2.4-1.2
		c-0.4-0.5-0.3-4.8,0.3-6.6c0,0,0.8-0.3,1.1-0.4c1.4-0.8,2.9-2.1,2.5-3.6c-2.9,1.2-6.1,1.6-9.2,1c0.5,1,1.8,1.4,2.2,2.4
		c0.1,0.4,0.1,0.8,0.1,1.3c-0.2,2-0.4,4-0.6,5.9C596.8,396.4,596.7,397.6,596.2,398.7z"/>
	<linearGradient id="SVGID_18_" gradientUnits="userSpaceOnUse" x1="607.8538" y1="488" x2="607.8538" y2="239.7099">
		<stop  offset="0" style="stop-color:#82BC00"/>
		<stop  offset="0.9116" style="stop-color:#82BC00;stop-opacity:0.3619"/>
		<stop  offset="1" style="stop-color:#82BC00;stop-opacity:0.3"/>
	</linearGradient>
	<path fill="url(#SVGID_18_)" d="M538,358.6c0.1-1.4,0-4.3-0.7-5.5c-0.3-0.5,12.8-22.3,21.8-27.8c4.2-2.6,3.9-7.1,7.7-9.6
		c1.5-1,7.7-0.1,8.9-1c3.8-2.6,6.2-4.5,5.7-5c-1.7-2.1-2.9-4.8-2.7-7.5c0.2-2.7,2.1-5.4,4.7-6.1c0.9-0.3,2-0.4,2.4-1.2
		c0.3-0.5,0.2-1.2,0.1-1.7c-0.2-3.4,1.9-6.7,5-8c3.1-1.3,7-0.3,9.2,2.2c-2.1,2.4-1.1,6.6,1.7,8.2c2.7,1.6,6.5,0.7,8.7-1.6
		c0.9-1,1.6-2.2,1.5-3.5c-0.2-2-2.1-3.3-3.7-4.3c2.3-0.1,4.9,0.1,7.1,0.7c1.6,0.4,4.2,8.2,6.2,8.6c5.8,1.1,7.6,0.5,16.8-3.7
		c-2-11.3,7.2,3.5,12.7,3.4c-1.1,1.5-2.1,3-3.2,4.5c3.3-1,13.9,0.4,17.1,1.8c2.1,0.9,11.5,2.8,13.6,3.7c-2.6,0.4-10.4,3.3-12.8,4.6
		c-0.7,0.4-1.5,0.5-2.3,0.6c-2.5,0.4-5.9-0.9-9.7-0.6c-6.2,0.6-13,2.9-17.1,3.5c-2.8,0.4-5.7,0.8-8.1,2.2c-2.2,1.2-3.9,3.2-5.6,5.1
		c-1.2,1.4-2.5,2.8-3.4,4.4c-2.2,3.6-2.9,7.9-3.8,12.1c-0.8,3.4-1.7,6.8-2.9,10.2c-1.9-0.1-3.9-0.3-5.2-1.7c-0.9-1-1.4-5-3.5-3.1
		c-2.6-6.2-8.5-2-17.3-1.8c-3,0.1-9.6-10.3-12.8-10.1c-3.6,0.2-4,10.9-7.5,11.1C553.8,342.2,538,359.7,538,358.6z"/>
	<linearGradient id="SVGID_19_" gradientUnits="userSpaceOnUse" x1="604.5031" y1="488" x2="604.5031" y2="239.7099">
		<stop  offset="0" style="stop-color:#82BC00"/>
		<stop  offset="0.9116" style="stop-color:#82BC00;stop-opacity:0.3619"/>
		<stop  offset="1" style="stop-color:#82BC00;stop-opacity:0.3"/>
	</linearGradient>
	<path fill="url(#SVGID_19_)" d="M607,291.5c-0.1-0.9-0.3-1.8-0.4-2.8c-0.1-0.5-0.2-1.1,0.2-1.6c0.2-0.3,0.7-0.8,0.4-1
		c-0.1-0.1-0.3-0.1-0.5-0.1c-1.9,0.3-3.6,1.4-4.6,3.1c-0.1,0.3-0.3,0.5-0.2,0.8c0.1,0.2,0.2,0.4,0.3,0.5c0.3,0.3,0.6,0.6,0.8,0.9
		c0.2,0.2,0.4,0.4,0.7,0.5L607,291.5z"/>
	<linearGradient id="SVGID_20_" gradientUnits="userSpaceOnUse" x1="602.8951" y1="488" x2="602.8951" y2="239.7099">
		<stop  offset="0" style="stop-color:#82BC00"/>
		<stop  offset="0.9116" style="stop-color:#82BC00;stop-opacity:0.3619"/>
		<stop  offset="1" style="stop-color:#82BC00;stop-opacity:0.3"/>
	</linearGradient>
	<path fill="url(#SVGID_20_)" d="M600.8,350.1c-1.1,1.6-1.8,3.5-1.5,5.4c0.3,1.9,1.8,3.6,3.7,3.8c-1.6,2-7.5,13.9-8.2,15.3
		c-0.9,1.7-1.7,6.5-0.2,7.7c1.5,1.2,3.2-0.6,5.2,0.9c0.6,0.4,2.6-0.2,5.1-2.2c0.6-0.5,1.1-1.1,1.5-1.7c1.7-2.6,3.3-5.2,5-7.8
		c0.2-0.3,0.4-0.7,0.5-1.1c0.1-0.5-0.1-1.1-0.3-1.6c-1.5-5.2,0.3-10.8,0.1-16.2c0-0.6-0.1-1.2-0.4-1.7c-0.3-0.4-0.7-0.6-1.1-0.8
		c-0.8-0.5-1.7-0.9-2.5-1.4c-1.1-0.6-2.2-1.2-3.4-1.1C602.9,347.8,601.7,348.9,600.8,350.1z"/>
	<linearGradient id="SVGID_21_" gradientUnits="userSpaceOnUse" x1="624.3198" y1="488" x2="624.3198" y2="239.7099">
		<stop  offset="0" style="stop-color:#82BC00"/>
		<stop  offset="0.9116" style="stop-color:#82BC00;stop-opacity:0.3619"/>
		<stop  offset="1" style="stop-color:#82BC00;stop-opacity:0.3"/>
	</linearGradient>
	<path fill="url(#SVGID_21_)" d="M638.7,266.5c0.8,0.3,1.6-0.3,2.2-0.9c1.1-1,2.2-2.1,3.3-3.1c-0.9-1.2-2-4-2.9-6.4
		c0,0-4.3-1.1-7.5-1.7l-1.5,0.7l-7.8,0.7c0,0-3.8-1.7-6.2-3.4c0,0-4.6-0.3-8.7-0.2c0.5,0.5,1.4,1.4,1.6,2.1c0.3,1.2-0.8,2.4-1.7,3.2
		c-1.1,0.9-2.1,1.8-3.2,2.7c-0.9,0.7-1.8,1.7-1.5,2.8c0.2,0.5,0.5,0.8,0.9,1.2c0.6,0.5,1.2,1.1,1.8,1.6c0.2,0.2,0.3,0.3,0.4,0.5
		c0.1,0.3,0,0.7-0.1,1.1c-0.5,2.1-0.1,4.3,1,6.1c1.2,1.8,3.1,3,5.2,3.4c-0.9,1.7,1.1,3.8,2.3,5.3c0.9,1.1,1.8,2.3,3.1,2.7
		c1.2,0.4,2.4,0.1,3.6-0.3c1.2-0.4,1.8-1.1,2.5-2.1c0.8-1-0.4-3.1-0.4-3.1s2.6,0,3.5,0.8c0.4,0.3,0.5,0.9,0.7,1.3
		c0.6,1.3,2.2,2.1,3.6,2.1c1.5,0,2.9-0.5,4.2-1.2c1.3-0.7,2.6-1.5,3.2-2.8c0.8-1.8,0-3.9-0.7-5.7c-0.4,0.9-0.8,1.8-1.4,2.6
		c-0.6,0.7-2.6,1.3-2.6,1.3l-1.1-4c0,0,3.1-4.1,3.2-4.9c0-0.2-0.1-0.5-0.2-0.7c-0.8-1.7-1.5-3.5-2.3-5.2c-0.7,0.7-1.4,1.4-2.1,2.1
		c-0.3-0.9-0.6-1.8-0.9-2.7c1.2-0.8,2.3-1.6,3.4-2.5c0.5,1.9,1.2,3.8,2.1,5.6C637.9,265.8,638.2,266.3,638.7,266.5z"/>
	<linearGradient id="SVGID_22_" gradientUnits="userSpaceOnUse" x1="666.4871" y1="488" x2="666.4871" y2="239.7099">
		<stop  offset="0" style="stop-color:#82BC00"/>
		<stop  offset="0.9116" style="stop-color:#82BC00;stop-opacity:0.3619"/>
		<stop  offset="1" style="stop-color:#82BC00;stop-opacity:0.3"/>
	</linearGradient>
	<path fill="url(#SVGID_22_)" d="M682.3,386.9c-13.8,14-36.2,14.4-50.4,0.9c2.9,7.3,6.2,14.4,9.8,21.4c-0.4-1.9-0.5-4.2,1.1-5.2
		c1.3-0.8,3.1-0.2,4.5,0.5c2.8,1.4,5.5,3,7.2,5.5c1.7,2.5,2.2,6.2,0.4,8.6c0.9,1.2,2.8,0.9,4.2,0.5c1.5-0.4,3.5-0.5,4.1,0.9
		c0.7,1.7-1.5,3.2-3.4,3.3c-1.9,0.1-3.9-0.2-5.6-1c10.3,11.6,16.3,26.8,16.8,42.3c4.2-0.8,7.7-3.8,10.5-6.9c7-7.6,12-17.1,14.3-27.2
		c-3,2.4-6.9,3.6-10.7,3.2c2.5-1.8,4.9-3.7,7.4-5.5c1-0.8,2.1-1.6,2.7-2.8c0.9-1.8,0.5-4,0.2-6c-0.9-5.1-1.1-10.3-0.1-15.4
		c0.9-4.5,2.8-8.6,4.1-13c1.4-4.6,2.3-9.5,1.5-14.3c-0.8-4.8-3.5-9.4-7.8-11.6c-0.2,0-0.4,0-0.6,0.1
		C691.6,373.3,688.2,380.9,682.3,386.9z"/>
	<linearGradient id="SVGID_23_" gradientUnits="userSpaceOnUse" x1="688.908" y1="488" x2="688.908" y2="239.7099">
		<stop  offset="0" style="stop-color:#82BC00"/>
		<stop  offset="0.9116" style="stop-color:#82BC00;stop-opacity:0.3619"/>
		<stop  offset="1" style="stop-color:#82BC00;stop-opacity:0.3"/>
	</linearGradient>
	<path fill="url(#SVGID_23_)" d="M691.3,353.1c0.2-1.5-0.8-2.8-2.1-2.8c-1.3,0-2.5,1.2-2.6,2.7s0.8,2.8,2.1,2.8
		S691.1,354.6,691.3,353.1z"/>
</g>
<path fill="#6FBE44" d="M533.1,357.9c0,0,0.5,0.6,0.4,2s-2.8,1.6-2.8,1.6l0.5-2.8L533.1,357.9z"/>
<polygon fill="#6FBE44" points="527.9,360.7 528.6,362 526.7,362.7 "/>
<path fill="#6FBE44" d="M530,350.3l1.2,2.6l2.2-1.3C533.5,351.6,532.2,350.4,530,350.3z"/>
<polygon fill="#6FBE44" points="528.6,355.6 530.7,356.3 529.2,357.1 "/>
<polygon fill="#6FBE44" points="524.9,366.1 522.9,369.6 526,366.6 "/>
<path fill="#FF6700" d="M650.8,539.3c-1,1.1-2.7,1.1-3.8,0c-1.1-1-1.1-2.7,0-3.8c1-1.1,2.7-1.1,3.8,0
	C651.8,536.6,651.8,538.3,650.8,539.3z"/>
<circle fill="#FF6700" cx="640.2" cy="533.1" r="1.1" onmouseover="evt.target.setAttribute('opacity', '0.5');"
/>
<circle fill="#FF6700" cx="641.9" cy="544.3" r="0.5" onmouseover="evt.target.setAttribute('opacity', '0.5');"
	/>
<animate 
           xlink:href="#orange-circle"
           dur="1s"
           begin="click"
	   path="M0,0c3.2-3.4,18.4-0.6,23.4-0.6c5.7,0.1,10.8,0.9,16.3,2.3    c13.5,3.5,26.1,9.6,38.5,16.2c12.3,6.5,21.3,16.8,31.9,25.4c10.8,8.7,21,18.3,31.7,26.9c9.3,7.4,20.9,11.5,31.4,16.7
    c13.7,6.8,26.8,9.7,41.8,9c21.4-1,40.8-3.7,61.3-10.4c10.9-3.5,18.9-11.3,28.5-17.8c5.4-3.7,10.4-6.7,14.8-11.5
    c1.9-2.1,3.7-5.5,6.5-6.5"
           fill="freeze" />
</svg>
