<?xml version="1.0" encoding="utf-8"?>
<!-- Generator: Adobe Illustrator 18.0.0, SVG Export Plug-In . SVG Version: 6.00 Build 0)  -->
<!DOCTYPE svg PUBLIC "-//W3C//DTD SVG 1.1//EN" "http://www.w3.org/Graphics/SVG/1.1/DTD/svg11.dtd">
<svg version="1.1" id="Layer_1" xmlns="http://www.w3.org/2000/svg" xmlns:xlink="http://www.w3.org/1999/xlink" x="0px" y="0px"
     viewBox="0 0 612 792" enable-background="new 0 0 612 792" xml:space="preserve" onload="init(evt)">
  <style>
  circle:hover
  {
    opacity: 0.5;
  };

  polygon:hover
  {
  opacity: 0.5;
  };
    
  .tooltip
  {
    font-size: 200%;
    color: #FFFFFF;
  };
  </style>

  <script type="text/ecmascript">
<![CDATA[
  function init(evt)
  {
    if ( window.svgDocument == null )
    {
      svgDocument = evt.target.ownerDocument;
    }
    tooltip = svgDocument.getElementById('tooltip');
  }

  function ShowTooltip(evt, mouseovertext)
  {
    tooltip.setAttributeNS(null,"x",evt.clientX+11);
    tooltip.setAttributeNS(null,"y",evt.clientY+27);
    tooltip.firstChild.data = mouseovertext;
    tooltip.setAttributeNS(null,"visibility","visible");
  }


  function HideTooltip()
  {
    tooltip.setAttributeNS(null,"visibility","hidden");
  }

]]></script>


<circle fill="#448EBF" cx="305.9" cy="339.7" r="226.1"
	onmousemove="ShowTooltip(evt, 'click for documentation')"
	onmouseout="HideTooltip()"
	onclick="window.parent.document.location.href='https://goo.gl/drUrrN';"/>
<circle fill="#5D7595" cx="305.9" cy="339.1" r="136"/>
<circle fill="#F26522" cx="391.1" cy="324" r="66.6"/>
<circle fill="#5D7595" cx="176" cy="216" r="28.5"/>
<circle fill="#5D7595" cx="218.3" cy="493.1" r="12.7"/>
<polygon fill="#6FBE44" points="301.6,506.1 342.2,502.7 324.3,485.2 "/>
<polygon fill="#6FBE44" points="329.1,483.3 349.4,500.6 404.3,502.6 357.4,433.7 "/>
<path fill="#6FBE44" d="M396.1,514c-0.3,0-0.6,0.3-0.8,0.5c-2.4,2.4-4.8,4.9-7.2,7.3c4.5,3.8,10.7,5.6,16.5,4.8
	c-2.8-3.5-5.1-7.4-7-11.4C397.2,514.6,396.8,513.9,396.1,514z"/>
<path fill="#6FBE44" d="M384.7,340.5c-2.9,1.3-6.2,0.5-9.2-0.5c-7.4-2.5-14.5-6.1-20.9-10.7c-2.2-1.6-4.4-3.4-5.2-6
	c-0.8-2.6,0.4-5.9,3-6.5c-1.6-1.1-0.8-3.7-1.8-5.3c-0.4-0.6-1-1-1.6-1.4c-3.9-2.9-6-8-5.4-12.8c-2,0.1-3.7,1.6-4.6,3.5
	s-1.1,3.9-1.3,5.9c-0.2,2.4-0.5,4.8-0.7,7.2c-0.2,2.3-0.2,5.2,1.9,6.4c-1.3,0.2-2.5,0.9-3.3,1.8c1.3,9.3,2.6,18.5,3.9,27.8
	c0.5,3.4,1.1,7.1,3.3,9.8c1.8,2.2,4.8,4,4.6,6.9c-1.5-0.1-2.9-0.7-4-1.7c-0.6,3.4,0.1,7.7,2.4,10.7c0.7,0.9,11.2,13,23.5,16.9
	c4.8,1.5,6.2,0.6,7.5,0.7c0.5,0-1.2-2.6-1.1-3.6c0.1-1,0.8-1.7,0.8-1.7s2-0.1,2.9,0.4c3.7,1.9,8.1,1.5,12.2,0.8
	c12.1-2,23.9-5.8,34.3-12.3c6.7-4.1,13.1-10,14.3-17.7c-4.8,0.8-9.9-1.4-12.6-5.4s-2.7-9.6-0.1-13.7c-7-2.3-13.9-4.7-20.9-7
	c-4.4-1.5-9.6-2.9-13.5-0.4C389.7,334.6,388.2,338.9,384.7,340.5z"/>
<path fill="#6FBE44" d="M395.9,310c-1.1-0.1,0-2.2,0.8-3c0.5-0.6,1.2-1.1,2-1c0.5,0.1,0.9,0.3,1.3,0.6c0.8,0.5,1.6,1.1,2.4,1.6
	c-1,0.9-0.7,3.2-2.1,3.4c-0.3,0.1-0.7-0.1-1-0.2C399.3,311.4,396.8,310.1,395.9,310z"/>
<path fill="#6FBE44" d="M375.9,294.5c-0.1-0.4-0.1-0.9,0-1.3c0.5-1.1,2.4-0.9,2.7-2c0.2-0.7-0.4-1.6-0.2-2.3
	c0.2-0.6,0.9-0.9,1.6-0.9c0.6,0.1,1.2,0.5,1.8,0.8c2.1,1.5,4.2,3.2,5.4,5.5c1.1,2.3,1,5.5-1,7.2c-2.2-0.5-4.3-1.1-6.4-1.7
	c-0.6-0.2-1.3-0.4-1.8-0.8C376.6,298,376.2,296.2,375.9,294.5z"/>
<path fill="#6FBE44" d="M431,292.8c1.2-1,2.2-2.2,3-3.6c0.1-0.2,0.3-0.5,0.3-0.8c0-0.3-0.2-0.5-0.4-0.7c-7.3-9-19.7-13.5-31.1-11.2
	c0.3,1,0.6,2,0.9,3c0.2,0.5,0.3,1.1,0.7,1.5c0.5,0.5,1.3,0.7,2,0.8c8.1,1.6,15,6.8,22,11.2c0.3,0.2,0.7,0.4,1.1,0.5
	C430.1,293.6,430.6,293.2,431,292.8z"/>
<path fill="#6FBE44" d="M423,249.5c-2.4-1.6-5.1-3.4-8-3.4c-4-0.1-7.4,2.7-10.4,5.3c-2,1.7-4,3.6-4.7,6.1c4.5,0,9.4,0.1,12.9,2.9
	c1.7-1.8,4.3-2.4,6.7-2.9c3.8-0.8,7.7-1.7,11.5-2.5C428.4,253.1,425.7,251.3,423,249.5z"/>
<path fill="#6FBE44" d="M275.4,399.9c-1.6,3.4-4.9,5.6-6.7,8.8c-2.1,3.7-2,8.5,0.2,12.1c1.3,2,3.1,3.6,5.1,5c2.3,1.6,4.8,2.9,7.6,3
	c2.8,0.1,14.6-2.7,17.2-5.5c2.7-2.8,0.9-5.7-1.3-4.6c-2.2,1.1-4.9,0.5-6.9-0.9c-2-1.4-3.5-3.1-4.6-5.3c-0.4-0.7-0.7-1.8-0.7-2.6
	c-0.2-1.9,1.4-3.5,3.2-4.1c1.8-0.6,3.7-0.3,5.6,0c-3-2.5-2.4-8-5.7-10.1c-1.5-1-3.5-1-4.6-2.4c-0.8-0.9-0.6-9.4,0.7-13
	c0,0,1.7-0.5,2.1-0.8c2.7-1.6,5.7-4.1,4.8-7.1c-5.6,2.4-11.9,3.1-17.9,2c0.9,2,3.6,2.7,4.3,4.7c0.3,0.8,0.2,1.6,0.1,2.5
	c-0.4,3.9-0.7,7.7-1.1,11.6C276.6,395.5,276.3,397.8,275.4,399.9z"/>
<path fill="#6FBE44" d="M161.7,321.5c0.2-2.6,0.1-8.5-1.4-10.8c-0.6-1.1,25-43.5,42.6-54.4c8.3-5.1,7.6-14,15-18.7
	c3-1.9,15-0.3,17.5-2c7.4-5,12-8.8,11.2-9.8c-3.4-4.1-5.6-9.4-5.2-14.7s4-10.5,9.2-12c1.7-0.5,3.9-0.8,4.7-2.4
	c0.5-1,0.4-2.3,0.3-3.4c-0.5-6.6,3.7-13.2,9.8-15.7c6.1-2.5,13.7-0.6,17.9,4.4c-4.1,4.7-2.1,12.8,3.3,15.9s12.7,1.4,16.9-3.1
	c1.7-1.9,3.1-4.4,2.8-6.9c-0.4-3.9-4-6.4-7.3-8.5c4.5-0.3,9.5,0.2,13.8,1.4c3,0.8,8.2,16.1,12,16.8c11.3,2.2,14.8,1.1,32.9-7.3
	c-3.9-22,14,6.9,24.8,6.6c-2.1,2.9-4.2,5.9-6.3,8.8c6.5-1.9,27.1,0.8,33.4,3.5c4.1,1.7,22.5,5.4,26.6,7.2c-5.2,0.7-20.4,6.4-24.9,9
	c-1.4,0.8-2.9,1-4.5,1.2c-4.9,0.7-11.6-1.9-18.9-1.1c-12.1,1.2-25.4,5.6-33.5,6.8c-5.5,0.8-11.1,1.6-15.9,4.4
	c-4.3,2.4-7.6,6.2-10.9,9.9c-2.4,2.7-4.8,5.5-6.7,8.6c-4.3,7.1-5.7,15.5-7.5,23.6c-1.5,6.7-3.4,13.4-5.6,19.9
	c-3.7-0.1-7.7-0.5-10.2-3.3c-1.8-2-2.7-9.7-6.8-6c-5.2-12.1-16.6-3.9-33.9-3.4c-5.9,0.2-18.7-20.1-25.1-19.7
	c-7.1,0.4-7.7,21.3-14.7,21.8C192.5,289.5,161.6,323.7,161.7,321.5z"/>
<path fill="#6FBE44" d="M296.6,190.4c-0.3-1.8-0.6-3.6-0.9-5.4c-0.2-1.1-0.3-2.2,0.3-3.1c0.5-0.7,1.3-1.5,0.8-2
	c-0.3-0.2-0.7-0.2-1-0.2c-3.7,0.5-7,2.8-8.9,6c-0.3,0.5-0.5,1.1-0.4,1.6c0.1,0.4,0.4,0.7,0.7,1c0.5,0.6,1.1,1.1,1.6,1.7
	c0.4,0.4,0.8,0.9,1.4,1L296.6,190.4z"/>
<path fill="#6FBE44" d="M284.4,304.9c-2.2,3.1-3.5,6.9-2.9,10.5c0.6,3.7,3.6,7.1,7.3,7.5c-3,4-14.6,27.3-16,29.8
	c-1.8,3.3-3.3,12.7-0.4,15c2.9,2.3,6.3-1.2,10.2,1.8c1.1,0.9,5.1-0.3,10-4.3c1.1-0.9,2.1-2.1,2.9-3.3c3.3-5.1,6.5-10.2,9.8-15.2
	c0.4-0.7,0.9-1.4,1-2.1c0.2-1.1-0.2-2.2-0.5-3.2c-3-10.2,0.5-21,0.2-31.6c0-1.1-0.1-2.3-0.8-3.3c-0.5-0.7-1.3-1.2-2.1-1.6
	c-1.6-0.9-3.3-1.8-4.9-2.7c-2.1-1.1-4.2-2.3-6.6-2.1C288.6,300.4,286.1,302.5,284.4,304.9z"/>
<path fill="#6FBE44" d="M358.5,141.5c1.5,0.6,3.1-0.6,4.3-1.8c2.1-2,4.2-4.1,6.4-6.1c-1.8-2.3-4-7.8-5.7-12.6c0,0-8.3-2.1-14.7-3.4
	l-2.9,1.4l-15.3,1.4c0,0-7.4-3.3-12.2-6.6c0,0-9-0.5-17.1-0.3c1,0.9,2.7,2.7,3.1,4c0.7,2.4-1.5,4.7-3.4,6.3
	c-2.1,1.7-4.1,3.5-6.2,5.2c-1.7,1.4-3.5,3.4-2.9,5.5c0.3,0.9,1,1.6,1.7,2.3c1.2,1.1,2.3,2.1,3.5,3.2c0.3,0.3,0.7,0.6,0.9,1
	c0.3,0.7,0.1,1.4-0.1,2.1c-1,4-0.3,8.4,2,11.9c2.3,3.5,6,5.9,10.1,6.6c-1.7,3.4,2.1,7.3,4.5,10.4c1.7,2.2,3.5,4.5,6.2,5.3
	c2.3,0.7,4.7,0.1,7-0.6c2.4-0.7,3.4-2.2,4.9-4.2c1.5-2-0.8-6-0.8-6s5.1,0,6.9,1.6c0.8,0.7,1,1.7,1.4,2.6c1.3,2.6,4.2,4,7.1,4.1
	c2.9,0.1,5.7-1,8.2-2.3c2.5-1.3,5-3,6.2-5.6c1.6-3.6,0.1-7.6-1.4-11.2c-0.8,1.8-1.6,3.6-2.8,5c-1.3,1.5-5,2.5-5,2.5l-2.2-7.9
	c0,0,6.1-8,6.3-9.5c0-0.4-0.1-0.9-0.3-1.3c-1.5-3.4-3-6.8-4.4-10.2c-1.4,1.4-2.7,2.7-4.1,4.1c-0.6-1.8-1.2-3.5-1.8-5.3
	c2.3-1.5,4.6-3.1,6.6-4.9c1,3.8,2.4,7.4,4.2,10.9C357,140.2,357.5,141.1,358.5,141.5z"/>
<path fill="#6FBE44" d="M443.8,377c-27,27.4-70.8,28.1-98.6,1.8c5.7,14.2,12,28.2,19.1,41.8c-0.8-3.6-1-8.2,2.1-10.2
	c2.6-1.6,6-0.4,8.8,1c5.4,2.7,10.8,5.9,14.2,10.8c3.4,4.9,4.3,12,0.7,16.8c1.8,2.4,5.4,1.7,8.3,1c2.9-0.7,6.8-0.9,7.9,1.8
	c1.5,3.3-3,6.2-6.7,6.5c-3.7,0.3-7.6-0.4-11-1.9c20.1,22.7,31.9,52.5,32.9,82.8c8.2-1.6,15-7.3,20.6-13.5
	c13.7-14.9,23.5-33.5,28-53.3c-5.8,4.7-13.5,7-20.9,6.2c4.8-3.6,9.6-7.2,14.5-10.8c2.1-1.5,4.2-3.2,5.4-5.4c1.8-3.5,1-7.8,0.4-11.7
	c-1.7-9.9-2.2-20.2-0.2-30.1c1.8-8.7,5.4-16.9,8-25.4c2.8-9,4.5-18.6,2.9-27.9c-1.6-9.3-6.9-18.3-15.3-22.7c-0.4,0-0.8,0.1-1.1,0.3
	C462,350.2,455.4,365.1,443.8,377z"/>
<path fill="#6FBE44" d="M461.4,310.8c0.3-3-1.5-5.4-4.1-5.4s-4.9,2.4-5.2,5.4c-0.3,3,1.5,5.4,4.1,5.4
	C458.8,316.2,461.1,313.8,461.4,310.8z"/>
<path fill="#6FBE44" d="M152,320.1c0,0,1,1.2,0.9,3.8c-0.2,2.6-5.6,3.1-5.6,3.1l1-5.4L152,320.1z"/>
<polygon fill="#6FBE44" points="141.9,325.7 143.3,328.3 139.5,329.7 "/>
<path fill="#6FBE44" d="M146.1,305.4l2.4,5l4.4-2.5C152.9,307.9,150.3,305.6,146.1,305.4z"/>
<polygon fill="#6FBE44" points="143.3,315.8 147.3,317 144.4,318.6 "/>
<polygon fill="#6FBE44" points="136,336.3 132.2,343.1 138.1,337.1 "/>
<g onmousemove="ShowTooltip(evt, 'click to remember Ivan')"
	onmouseout="HideTooltip()"
	onclick="window.parent.document.location.href='https://www.facebook.com/ivan.pulleyn?fref=ts';">
<path fill="#5D7595" d="M178.5,628.1h-25.9v11.9h5c0,0,1,32.5,1,43.6h-6v10.9h25.9v-10.9h-6.9l-0.2-35.3l0-7.2l1.9,0.4
	c0-2.4,4.5-2.5,4.5-2.5c0,0,0,0,0,0c0,0,0,0,0,0h0.7V628.1z"/>
<polygon fill="#5D7595" points="370,628.2 344.2,628.2 344.2,639.1 350.7,639.1 350.1,672.5 316.6,628.2 298.9,628.2 298.9,639.1 
	305.2,639.2 307.5,683.4 302.1,683.4 302,694 327.7,694 327.7,684.6 320.2,684.6 318,651.2 350.9,694.4 363,694.4 363,639.1 
	370,639.1 "/>
<path fill="#448EBF" d="M404.5,675.9c12.9-4.2,20-18,15.8-30.9c-4.2-12.9-18.1-19.9-31-15.7c-12.9,4.2-20,18-15.8,30.9
			C377.7,673,391.6,680.1,404.5,675.9z"/>

<path fill="#5D7595" d="M401.4,666.4c7.6-2.5,11.8-10.6,9.3-18.3s-10.7-11.8-18.3-9.3c-7.6,2.5-11.8,10.6-9.3,18.3
	C385.6,664.7,393.8,668.8,401.4,666.4z"/>
<path fill="#F26522" d="M411.4,656c-2.8,2.8-7.4,2.9-10.2,0.1c-2.8-2.8-2.9-7.4-0.1-10.2s7.4-2.9,10.2-0.1
	C414.2,648.6,414.2,653.2,411.4,656z"/>
<rect x="383.6" y="683.6" fill="#448EBF" width="26.6" height="10.8"/>
<path fill="#448EBF" d="M466.4,663.8c-9.2-8.8-27.5-9.4-27.6-17.6c0-4.4,4.4-7.5,8.5-7.5c6.6,0.1,9.6,7,9.6,8.4h10.4v-17.6h-8.4v3.6
	c-1.9-1.8-6.1-4.6-14-4.5c-11.7,0.1-18.7,10.3-18.7,17.7c0.1,7.5,1.8,14.7,16.2,19.1c11.9,3.7,16.9,4.2,16.3,11.5
	c-0.6,7.5-10.5,8.4-15.3,6.5c-2.8-1.1-4.8-4.3-5.1-8.3h-11.5v19.1h10.1v-4.2c0,0,0.5,5,13.5,5c13.3,0,18.9-9.4,20.2-13.7
	C471.8,677.1,472.1,669.3,466.4,663.8z"/>
<path fill="#5D7595" d="M293.9,683.5l-22-54.9h-21.2v10.1h1.8l0.9,1.7c0,0,2.3-0.4,2.3,1.6l-18,41.4h-5.4V694h12.5h5.5h5.5v-9.2
	h-5.2l4.1-9.6h22.7l3.8,9.6h-5.4v9.2h11h11.4v-10.6L293.9,683.5z M257.7,665.8l8.2-22.5l8.2,22.5H257.7z"/>
<path fill="#5D7595" d="M221.3,629l0,10h7l-16.9,37.6l-7.9-34.6c0,0,0.2-1.9,1.2-2.9h4.2v-10.9h-27.7v10.9h6.8l13.6,46.4
	c0,0,0.7,1.5,0,2.8c-0.7,1.3-1.5,1.2-1.5,1.2l0.4,4.8h13h4.4h8.6v-10.2c-2.3,0-3.4-0.7-3.8-1.4l18.2-43.7h5.7V629H221.3z"/>
<circle fill="#5D7595" cx="382.9" cy="639.2" r="3.1"/>
<circle fill="#5D7595" cx="387.4" cy="669.3" r="1.4"/>
</g>
  <text class="tooltip" id="tooltip"
	x="0" y="0" visibility="hidden"
	style="
               font-size  : 32;
               stroke     : #FFFFFF;
               fill       : #FFFFFF">Tooltip</text>
</svg>
